<svg width="61" height="55" viewBox="0 0 61 55" fill="none" xmlns="http://www.w3.org/2000/svg">
<path d="M57.4156 4.00726H46.8394V1.41391C46.8394 0.633134 46.1983 0 45.4075 0C44.6167 0 43.9757 0.633134 43.9757 1.41391V4.00726H36.8994V1.41391C36.8994 0.633134 36.2584 0 35.4676 0C34.6768 0 34.0358 0.633134 34.0358 1.41391V4.00726H26.9594V1.41391C26.9594 0.633134 26.3183 0 25.5275 0C24.7367 0 24.0957 0.633134 24.0957 1.41391V4.00726H17.0194V1.41391C17.0194 0.633134 16.3784 0 15.5876 0C14.7968 0 14.1558 0.633134 14.1558 1.41391V4.00726H3.57953C1.60577 4.00726 0 5.59292 0 7.54197V50.7871C0 52.7361 1.60577 54.3218 3.57953 54.3218H57.4156C59.3894 54.3218 60.9951 52.7361 60.9951 50.7871V7.54197C60.9951 5.59292 59.3894 4.00726 57.4156 4.00726ZM58.1314 50.7872C58.1314 51.177 57.8103 51.4941 57.4156 51.4941H3.57953C3.18473 51.4941 2.86367 51.1769 2.86367 50.7872V19.4071H53.6447C54.4355 19.4071 55.0766 18.7739 55.0766 17.9931C55.0766 17.2124 54.4355 16.5792 53.6447 16.5792H2.86367V7.54197C2.86367 7.15211 3.18485 6.83507 3.57953 6.83507H14.1558V9.42843C14.1558 10.2092 14.7968 10.8423 15.5876 10.8423C16.3784 10.8423 17.0194 10.2092 17.0194 9.42843V6.83507H24.0957V9.42843C24.0957 10.2092 24.7367 10.8423 25.5275 10.8423C26.3183 10.8423 26.9594 10.2092 26.9594 9.42843V6.83507H34.0358V9.42843C34.0358 10.2092 34.6768 10.8423 35.4676 10.8423C36.2584 10.8423 36.8994 10.2092 36.8994 9.42843V6.83507H43.9757V9.42843C43.9757 10.2092 44.6167 10.8423 45.4075 10.8423C46.1983 10.8423 46.8394 10.2092 46.8394 9.42843V6.83507H57.4157C57.8105 6.83507 58.1316 7.15223 58.1316 7.54197L58.1314 50.7872Z" fill="black"/>
<path d="M49.2184 24.9351H11.7764C11.0646 24.9351 10.4878 25.5047 10.4878 26.2076V44.6941C10.4878 45.3969 11.0646 45.9666 11.7764 45.9666H49.2184C49.9302 45.9666 50.507 45.3969 50.507 44.6941V26.2076C50.5069 25.5047 49.9301 24.9351 49.2184 24.9351ZM19.8483 43.4216H13.0651V36.7234H19.8483V43.4216ZM19.8483 34.1784H13.0651V27.48H19.8483V34.1784ZM29.2088 43.4216H22.4256V36.7234H29.2088V43.4216ZM29.2088 34.1784H22.4256V27.48H29.2088V34.1784ZM38.5693 43.4216H31.786V36.7234H38.5693V43.4216ZM38.5693 34.1784H31.786V27.48H38.5693V34.1784ZM47.9297 43.4216H41.1465V36.7234H47.9297V43.4216ZM47.9297 34.1784H41.1465V27.48H47.9297V34.1784Z" fill="black"/>
</svg>
