<?xml version="1.0" encoding="utf-8"?>
<!-- Generator: Adobe Illustrator 24.0.0, SVG Export Plug-In . SVG Version: 6.00 Build 0)  -->
<svg version="1.1" id="Capa_1" xmlns="http://www.w3.org/2000/svg" xmlns:xlink="http://www.w3.org/1999/xlink" x="0px" y="0px"
	 viewBox="0 0 129.9 91.3" style="enable-background:new 0 0 129.9 91.3;" xml:space="preserve">

<path fill="white" d="M123.1,41.2c0-21.9-27.2-39.7-60.7-39.7C28.9,1.5,1.7,19.3,1.7,41.2c0,0.6,0,2.1,0,2.3c0,23.2,23.8,42,60.7,42
	c37.2,0,60.7-18.8,60.7-42C123.1,42.7,123.1,42.2,123.1,41.2z"/>
<path  class="st0" d="M120.8,41.1c0,20.6-26.1,37.3-58.4,37.3c-32.2,0-58.4-16.7-58.4-37.3c0-20.6,26.1-37.3,58.4-37.3
	C94.7,3.8,120.8,20.5,120.8,41.1z"/>
<path  class="st0" d="M43.1,29.4c0,0.1-0.6,0.7-0.2,1.1c0.9,1.2,3.8,1.9,6.6,1.2c1.7-0.4,3.9-2.1,6-3.8c2.3-1.8,4.6-3.7,6.9-4.4
	c2.4-0.8,4-0.4,5-0.1c1.1,0.3,2.5,1.1,4.6,2.7c4,3,20.1,17,22.8,19.4c2.2-1,12.2-5.3,25.7-8.3c-1.2-7.2-5.5-13.8-12.2-19.2
	c-9.3,3.9-20.6,5.9-31.6,0.5c-0.1,0-6-2.9-11.9-2.7c-8.8,0.2-12.6,4-16.6,8L43.1,29.4z"/>
<path  class="st0" d="M94.2,47C94,46.8,75.3,30.5,71.1,27.3c-2.5-1.8-3.8-2.3-5.2-2.5c-0.7-0.1-1.8,0-2.5,0.2c-2,0.5-4.5,2.3-6.8,4.1
	c-2.4,1.9-4.6,3.7-6.7,4.1c-2.6,0.6-5.9-0.1-7.4-1.1c-0.6-0.4-1-0.9-1.2-1.3c-0.5-1.3,0.5-2.3,0.6-2.4l5.2-5.6
	c0.6-0.6,1.2-1.2,1.8-1.8c-1.7,0.2-3.2,0.6-4.7,1.1c-1.9,0.5-3.7,1-5.5,1c-0.8,0-4.8-0.7-5.6-0.9c-4.7-1.3-8.8-2.5-14.9-5.4
	C10.8,22.3,5.9,29.1,4.5,36.6c1.1,0.3,2.8,0.8,3.5,0.9c16.6,3.7,21.8,7.5,22.7,8.3c1-1.1,2.5-1.8,4.1-1.8c1.8,0,3.5,0.9,4.5,2.3
	c1-0.8,2.3-1.4,4-1.4c0.8,0,1.6,0.1,2.4,0.4c1.9,0.6,2.8,1.9,3.3,3c0.6-0.3,1.4-0.5,2.3-0.5c0.9,0,1.8,0.2,2.8,0.6
	c3.1,1.3,3.5,4.3,3.3,6.6c0.2,0,0.4,0,0.7,0c3.6,0,6.6,3,6.6,6.6c0,1.1-0.3,2.2-0.8,3.1c1,0.6,3.5,1.8,5.7,1.5
	c1.8-0.2,2.4-0.8,2.7-1.2c0.2-0.2,0.3-0.5,0.2-0.7l-4.7-5.2c0,0-0.8-0.7-0.5-1c0.3-0.3,0.7,0.1,1.1,0.4c2.4,2,5.3,5,5.3,5
	c0,0,0.2,0.4,1.3,0.6c0.9,0.2,2.6,0.1,3.7-0.9c0.3-0.2,0.6-0.5,0.8-0.8c0,0,0,0-0.1,0c1.2-1.5-0.1-3.1-0.1-3.1l-5.5-6.1
	c0,0-0.8-0.7-0.5-1c0.2-0.3,0.7,0.1,1.1,0.4c1.7,1.4,4.2,3.9,6.5,6.2c0.5,0.3,2.5,1.6,5.2-0.2c1.7-1.1,2-2.4,1.9-3.4
	C87.8,54,86.8,53,86.8,53l-7.5-7.5c0,0-0.8-0.7-0.5-1c0.2-0.3,0.7,0.1,1.1,0.4c2.4,2,8.8,7.9,8.8,7.9c0.1,0.1,2.3,1.7,5.1-0.1
	c1-0.6,1.6-1.6,1.7-2.7C95.5,48.1,94.2,47,94.2,47z"/>
<path  class="st0" d="M58,56.5c-1.2,0-2.4,0.7-2.6,0.6c-0.1-0.1,0.1-0.5,0.2-0.8c0.1-0.3,1.6-4.9-2.1-6.4c-2.8-1.2-4.6,0.2-5.2,0.8
	c-0.2,0.2-0.2,0.1-0.2-0.1c-0.1-0.8-0.4-3.1-2.9-3.8c-3.5-1.1-5.8,1.4-6.3,2.3c-0.3-2-1.9-3.6-4-3.6c-2.3,0-4.1,1.8-4.1,4.1
	c0,2.2,1.8,4.1,4.1,4.1c1.1,0,2.1-0.4,2.8-1.1c0,0,0,0.1,0,0.1c-0.2,1-0.5,4.7,3.3,6.2c1.5,0.6,2.8,0.2,3.9-0.6
	c0.3-0.2,0.4-0.1,0.3,0.2c-0.1,0.9,0,3,2.9,4.1c2.2,0.9,3.4,0,4.3-0.8c0.4-0.3,0.5-0.3,0.5,0.2c0.1,2.7,2.4,4.9,5.1,4.9
	c2.8,0,5.1-2.3,5.1-5.1C63.1,58.8,60.8,56.6,58,56.5z"/>
<path fill="white" d="M94.9,45c-5.8-5-19.1-16.6-22.7-19.3c-2.1-1.5-3.5-2.4-4.7-2.7c-0.6-0.2-1.3-0.4-2.3-0.4c-0.9,0-1.9,0.2-2.9,0.5
	c-2.3,0.7-4.6,2.6-6.9,4.4l-0.1,0.1c-2.1,1.7-4.3,3.4-5.9,3.7c-0.7,0.2-1.4,0.2-2.2,0.2c-1.8,0-3.5-0.5-4.1-1.3
	c-0.1-0.1,0-0.3,0.2-0.6l0,0l5.1-5.5c4-4,7.7-7.7,16.3-7.9c0.1,0,0.3,0,0.4,0c5.4,0,10.7,2.4,11.3,2.7c5,2.5,10.2,3.7,15.5,3.7
	c5.4,0,11.1-1.3,17-4.1c-0.7-0.6-1.3-1.1-2.1-1.6c-5.2,2.2-10.1,3.4-14.9,3.4c-4.9,0-9.7-1.2-14.5-3.5c-0.2-0.1-6.2-2.9-12.3-2.9
	c-0.2,0-0.3,0-0.5,0c-7.2,0.2-11.3,2.7-14.1,5c-2.7,0.1-5,0.7-7,1.3c-1.8,0.5-3.4,0.9-4.9,0.9c-0.6,0-1.8-0.1-1.9-0.1
	C35,21,26.1,18.8,19,16.1c-0.7,0.5-1.4,1-2.1,1.6c7.4,3,16.4,5.4,19.3,5.6c0.8,0.1,1.6,0.1,2.5,0.1c1.9,0,3.8-0.5,5.6-1
	c1.1-0.3,2.3-0.6,3.5-0.9c-0.3,0.3-0.7,0.7-1,1l-5.1,5.6c-0.4,0.4-1.3,1.5-0.7,2.8c0.2,0.5,0.7,1.1,1.4,1.5c1.2,0.8,3.4,1.4,5.5,1.4
	c0.8,0,1.5-0.1,2.2-0.2c2.2-0.5,4.4-2.3,6.8-4.2c1.9-1.5,4.6-3.4,6.7-4c0.6-0.2,1.3-0.3,1.9-0.3c0.2,0,0.3,0,0.5,0
	c1.4,0.2,2.7,0.6,5.1,2.4c4.2,3.2,22.9,19.5,23.1,19.7c0,0,1.2,1,1.1,2.7c0,1-0.6,1.8-1.5,2.4c-0.8,0.5-1.6,0.8-2.5,0.8
	c-1.2,0-2.1-0.6-2.2-0.6c-0.1-0.1-6.5-5.9-8.8-7.9c-0.4-0.3-0.7-0.6-1.1-0.6c-0.2,0-0.4,0.1-0.5,0.2c-0.4,0.5,0,1.1,0.5,1.5l7.5,7.5
	c0,0,0.9,0.9,1,2c0.1,1.2-0.5,2.3-1.8,3.1c-0.9,0.6-1.8,0.9-2.7,0.9c-1.1,0-2-0.5-2.1-0.6l-1.1-1.1c-2-1.9-4-3.9-5.5-5.2
	c-0.4-0.3-0.7-0.6-1.1-0.6c-0.2,0-0.3,0.1-0.5,0.2c-0.2,0.2-0.3,0.5,0.1,1.1c0.2,0.2,0.4,0.4,0.4,0.4l5.5,6.1c0,0.1,1.1,1.3,0.1,2.6
	l-0.2,0.2c-0.2,0.2-0.3,0.3-0.5,0.5c-0.9,0.8-2.2,0.8-2.7,0.8c-0.3,0-0.5,0-0.7-0.1c-0.5-0.1-0.9-0.2-1.1-0.5l-0.1-0.1
	c-0.3-0.3-3.1-3.1-5.3-5c-0.3-0.3-0.7-0.6-1.1-0.6c-0.2,0-0.4,0.1-0.5,0.2c-0.5,0.5,0.2,1.2,0.5,1.5l4.7,5.1c0,0-0.1,0.2-0.2,0.3
	c-0.2,0.2-0.7,0.8-2.4,1c-0.2,0-0.4,0-0.6,0c-1.7,0-3.6-0.8-4.6-1.4c0.4-0.9,0.7-1.9,0.7-3c0-3.8-3.1-7-6.9-7c-0.1,0-0.2,0-0.3,0
	c0.1-1.8-0.1-5.1-3.5-6.5c-1-0.4-2-0.6-2.9-0.6c-0.7,0-1.5,0.1-2.1,0.4c-0.7-1.4-1.9-2.4-3.4-2.9c-0.8-0.3-1.7-0.4-2.5-0.4
	c-1.4,0-2.7,0.4-3.9,1.2c-1.1-1.4-2.8-2.2-4.6-2.2c-1.6,0-3,0.6-4.1,1.7c-1.4-1.1-7.2-4.8-22.6-8.3c-0.7-0.2-2.5-0.7-3.5-1
	c-0.2,0.8-0.3,1.7-0.4,2.5c0,0,2.8,0.7,3.4,0.8c15.7,3.5,20.9,7.1,21.8,7.8c-0.3,0.7-0.5,1.5-0.5,2.3c0,3.2,2.6,5.9,5.9,5.9
	c0.4,0,0.7,0,1.1-0.1c0.5,2.4,2.1,4.2,4.4,5.1c0.7,0.3,1.4,0.4,2.1,0.4c0.4,0,0.9-0.1,1.3-0.2c0.4,1.1,1.4,2.5,3.7,3.4
	c0.8,0.3,1.6,0.5,2.3,0.5c0.6,0,1.2-0.1,1.8-0.3c1.1,2.6,3.6,4.3,6.4,4.3c1.9,0,3.7-0.8,5-2.1c1.1,0.6,3.5,1.8,5.9,1.8
	c0.3,0,0.6,0,0.9-0.1c2.4-0.3,3.5-1.2,4-2c0.1-0.1,0.2-0.3,0.2-0.4c0.6,0.2,1.2,0.3,1.9,0.3c1.3,0,2.5-0.4,3.8-1.4
	c1.2-0.9,2.1-2.2,2.2-3.3c0,0,0,0,0,0c0.4,0.1,0.8,0.1,1.3,0.1c1.3,0,2.6-0.4,3.9-1.2c2.4-1.6,2.8-3.7,2.8-5
	c0.4,0.1,0.9,0.1,1.3,0.1c1.3,0,2.5-0.4,3.7-1.1c1.5-1,2.4-2.4,2.5-4.1c0.1-1.2-0.2-2.3-0.8-3.3c4.1-1.7,13.3-5.1,24.3-7.6
	c-0.1-0.8-0.2-1.7-0.3-2.5C107.2,39.7,97.4,43.9,94.9,45z M58,66.4c-2.6,0-4.7-2-4.7-4.5c0-0.2,0-0.8-0.5-0.8
	c-0.2,0-0.4,0.1-0.6,0.3c-0.6,0.5-1.3,1.1-2.3,1.1c-0.5,0-1-0.1-1.5-0.3c-2.7-1.1-2.7-3-2.6-3.7c0-0.2,0-0.4-0.1-0.6l-0.2-0.2h-0.2
	c-0.1,0-0.3,0.1-0.5,0.2c-0.8,0.6-1.5,0.8-2.3,0.8c-0.4,0-0.9-0.1-1.3-0.2c-3.6-1.4-3.3-4.8-3.1-5.8c0-0.2,0-0.4-0.2-0.5L37.6,52
	l-0.2,0.2c-0.7,0.7-1.6,1-2.6,1c-2,0-3.7-1.7-3.7-3.7c0-2,1.7-3.7,3.7-3.7c1.8,0,3.4,1.4,3.7,3.2l0.1,1l0.5-0.8
	c0.1-0.1,1.6-2.4,4.3-2.4c0.5,0,1.1,0.1,1.6,0.3c2.2,0.7,2.6,2.7,2.6,3.5c0,0.5,0.4,0.5,0.4,0.5c0.2,0,0.3-0.1,0.4-0.2
	c0.4-0.4,1.3-1.2,2.7-1.2c0.6,0,1.3,0.2,2,0.5c3.5,1.5,1.9,5.9,1.9,6c-0.3,0.7-0.3,1.1,0,1.2l0.1,0.1h0.1c0.2,0,0.4-0.1,0.7-0.2
	c0.5-0.2,1.2-0.4,1.9-0.4h0c2.6,0,4.8,2.2,4.8,4.8C62.7,64.3,60.6,66.4,58,66.4z"/>
</svg>
