<svg width="64" height="55" viewBox="0 0 64 55" fill="none" xmlns="http://www.w3.org/2000/svg">
<path fill-rule="evenodd" clip-rule="evenodd" d="M38.0718 22.7773C38.0718 25.4182 35.8958 27.5669 33.2213 27.5669C30.5469 27.5669 28.371 25.4182 28.3711 22.7773C28.3711 20.1362 30.5469 17.9878 33.2213 17.9878C35.8959 17.9878 38.0718 20.1362 38.0718 22.7773ZM35.1869 22.7773C35.1869 21.707 34.3052 20.8364 33.2213 20.8364C32.1376 20.8364 31.2558 21.707 31.2559 22.7773C31.2559 23.8474 32.1376 24.718 33.2213 24.718C34.3053 24.718 35.1869 23.8474 35.1869 22.7773Z" fill="black"/>
<path fill-rule="evenodd" clip-rule="evenodd" d="M5.82568 14.4526V42.4131C5.82568 43.1997 6.47144 43.8374 7.26819 43.8374H48.6883C49.4848 43.8374 50.1308 43.1997 50.1308 42.4131V14.4526C50.1308 13.666 49.4848 13.0283 48.6883 13.0283H7.26819C6.47144 13.0283 5.82568 13.666 5.82568 14.4526ZM47.2458 40.9885H40.2899L35.3365 36.0972L38.872 32.606L47.028 40.6587C47.0959 40.7258 47.1691 40.7844 47.2459 40.8352L47.2458 40.9885ZM8.71069 15.8772H47.2458V36.8452L39.8917 29.5842C39.3286 29.0283 38.4153 29.0283 37.8517 29.5842L33.2964 34.0825L22.653 23.5723C22.0897 23.0161 21.1765 23.0164 20.613 23.5723L8.71069 35.325V15.8772ZM8.71069 39.3538L21.6329 26.5942L36.2097 40.9885H8.71069V39.3538Z" fill="black"/>
<path fill-rule="evenodd" clip-rule="evenodd" d="M60.4462 0H10.2462C8.659 0 7.3678 1.27515 7.3678 2.84229V7.27515H2.88495C1.29419 7.27515 0 8.55322 0 10.124V51.2861C0 52.8569 1.29419 54.135 2.88495 54.135H53.072C54.6627 54.135 55.9569 52.8569 55.9569 51.2861V10.124C55.9569 8.55322 54.6627 7.27515 53.072 7.27515H10.251L10.2461 2.84888L60.4396 2.84253V45.4346C60.4396 46.2212 61.0856 46.8591 61.8821 46.8591C62.6786 46.8591 63.3246 46.2212 63.3246 45.4346V2.84253C63.3246 1.27515 62.0332 0 60.4462 0ZM53.072 10.124V51.2861L2.88495 51.2878V10.124H8.79901L8.81018 10.1248L8.82129 10.124H53.072Z" fill="black"/>
</svg>
