<svg width="132" height="23" viewBox="0 0 132 23" fill="none" xmlns="http://www.w3.org/2000/svg">
<path d="M16.53 2.15882V2.46557C16.53 3.60174 16.2362 3.90849 15.067 3.90849H10.0101V20.8942C10.0101 22.0815 9.7164 22.3712 8.51266 22.3712H8.05763C6.84812 22.3712 6.55439 22.0815 6.55439 20.8942V3.90849H1.46868C0.316769 3.90849 0 3.61878 0 2.46557V2.17584C0 1.03967 0.293731 0.727235 1.46868 0.727235H15.067C16.242 0.710193 16.53 0.999927 16.53 2.15882ZM27.9742 6.05018C25.5955 6.05018 23.8676 6.82278 22.9231 8.04416V1.79524C22.9231 0.659068 22.6293 0.346629 21.4544 0.346629H21.0282C19.8763 0.346629 19.5653 0.636345 19.5653 1.79524V20.934C19.5653 22.0701 19.859 22.3769 21.0282 22.3769H21.4544C22.6063 22.3769 22.9231 22.0872 22.9231 20.934V13.2137C22.9231 10.1574 24.4206 9.16326 26.9548 9.16326C29.368 9.16326 30.4105 10.0324 30.4105 12.1514V20.934C30.4105 22.0701 30.7043 22.3769 31.8792 22.3769H32.2997C33.4516 22.3769 33.7683 22.0872 33.7683 20.934V11.6401C33.7511 7.57834 31.2399 6.05018 27.98 6.05018H27.9742ZM39.3206 7.17902e-05C39.049 -0.00217564 38.7797 0.0483652 38.528 0.148785C38.2762 0.249204 38.047 0.397556 37.8534 0.585353C37.6598 0.77315 37.5056 0.996728 37.3996 1.24331C37.2936 1.48989 37.2379 1.75462 37.2356 2.02245C37.2402 2.56386 37.4622 3.08141 37.853 3.46159C38.2439 3.84176 38.7716 4.05354 39.3206 4.05051C39.5908 4.05126 39.8585 3.99933 40.1083 3.89767C40.3581 3.79602 40.5851 3.64666 40.7762 3.45819C40.9673 3.26972 41.1187 3.04587 41.2217 2.79947C41.3248 2.55308 41.3775 2.28899 41.3767 2.02245C41.3722 1.48746 41.1547 0.975659 40.7712 0.59735C40.3876 0.219042 39.8687 0.00452409 39.3263 7.17902e-05H39.3206ZM39.5164 6.40807H39.0902C37.9383 6.40807 37.6273 6.69778 37.6273 7.85099V20.9169C37.6273 22.0531 37.921 22.3599 39.0902 22.3599H39.5164C40.6683 22.3599 40.9851 22.0701 40.9851 20.9169V7.85099C40.9908 6.69778 40.7201 6.40807 39.5221 6.40807H39.5164ZM51.9686 6.05018C47.0787 6.05018 44.8613 8.32251 44.8613 12.2991V20.9226C44.8613 22.0588 45.155 22.3656 46.3299 22.3656H46.7561C47.9081 22.3656 48.2191 22.0758 48.2191 20.9226V12.2991C48.2191 10.2767 48.9045 9.15193 51.9686 9.15193C55.0327 9.15193 55.6892 10.2881 55.6892 12.2991V20.9226C55.6892 22.0588 55.983 22.3656 57.1522 22.3656H57.5784C58.7303 22.3656 59.0471 22.0758 59.0471 20.9226V12.2991C59.0528 8.27138 57.06 6.05018 51.9743 6.05018H51.9686ZM64.749 0.318197H64.3574C63.2055 0.318197 62.8945 0.607948 62.8945 1.76684V20.9112C62.8945 22.0474 63.1882 22.3542 64.3574 22.3542H64.749C65.9009 22.3542 66.2177 22.0644 66.2177 20.9112V1.76684C66.2235 0.607948 65.9297 0.318197 64.7548 0.318197H64.749ZM71.2689 15.0543C70.9346 14.7587 70.7164 14.3565 70.6526 13.9181C70.7179 13.4725 70.9501 13.0671 71.3034 12.782L75.8362 7.7658C76.8153 6.67508 76.6829 6.41945 75.2142 6.41945H74.6382C74.0574 6.35653 73.47 6.4482 72.9372 6.68497C72.4045 6.92174 71.9457 7.29496 71.6087 7.7658L68.6079 11.1118C67.5655 12.248 67.3063 12.8502 67.3063 13.8443C67.3063 14.8384 67.5655 15.6167 68.6079 16.804L72.2595 21.0192C72.597 21.4896 73.0558 21.8624 73.5885 22.0991C74.1211 22.3358 74.7083 22.4279 75.2891 22.3656H75.865C77.3279 22.3656 77.4604 22.1099 76.4813 21.0192L71.2689 15.0543ZM81.6361 7.17902e-05C81.3645 -0.00217564 81.0952 0.0483652 80.8435 0.148785C80.5918 0.249204 80.3626 0.397556 80.1689 0.585353C79.9753 0.77315 79.8211 0.996728 79.7151 1.24331C79.6091 1.48989 79.5534 1.75462 79.5511 2.02245C79.5557 2.56386 79.7777 3.08141 80.1686 3.46159C80.5594 3.84176 81.0872 4.05354 81.6361 4.05051C81.9063 4.05126 82.174 3.99933 82.4238 3.89767C82.6736 3.79602 82.9006 3.64666 83.0917 3.45819C83.2828 3.26972 83.4342 3.04587 83.5373 2.79947C83.6404 2.55308 83.693 2.28899 83.6923 2.02245C83.6877 1.48255 83.4663 0.966475 83.0765 0.587364C82.6867 0.208254 82.1605 -0.00295491 81.6131 7.17902e-05H81.6361ZM81.8319 6.40807H81.4057C80.2538 6.40807 79.9428 6.69778 79.9428 7.85099V20.9169C79.9428 22.0531 80.2308 22.3599 81.4057 22.3599H81.8319C82.9838 22.3599 83.3006 22.0701 83.3006 20.9169V7.85099C83.2776 6.69778 82.9838 6.40807 81.8089 6.40807H81.8319ZM101.783 12.9978V15.7644C101.783 20.1386 99.4389 22.7121 94.3475 22.7121C89.0371 22.7121 86.86 20.2636 86.86 15.7644V12.9978C86.86 8.59518 89.2387 6.05018 94.3475 6.05018C99.6117 6.05018 101.772 8.49861 101.772 12.9978H101.783ZM98.4252 12.9978C98.4252 10.4869 97.6765 9.14055 94.3475 9.14055C91.0184 9.14055 90.2121 10.4869 90.2121 12.9978V15.7644C90.2121 18.2696 90.9896 19.5876 94.3475 19.5876C97.7053 19.5876 98.4252 18.2696 98.4252 15.7644V12.9978ZM112.087 6.05018C107.197 6.05018 104.98 8.32251 104.98 12.2991V20.9226C104.98 22.0588 105.273 22.3656 106.448 22.3656H106.869C108.021 22.3656 108.337 22.0758 108.337 20.9226V12.2991C108.337 10.2767 109.023 9.15193 112.087 9.15193C115.151 9.15193 115.802 10.2881 115.802 12.2991V20.9226C115.802 22.0588 116.096 22.3656 117.271 22.3656H117.697C118.849 22.3656 119.16 22.0758 119.16 20.9226V12.2991C119.137 8.27138 117.15 6.05018 112.064 6.05018H112.087Z" fill="white"/>
<path opacity="0.6" d="M130.265 11.1009C131.307 12.2371 131.572 12.8393 131.572 13.8334C131.572 14.8276 131.307 15.6058 130.265 16.7931L126.613 21.0083C126.277 21.4796 125.818 21.8531 125.285 22.09C124.752 22.3268 124.165 22.4182 123.584 22.3547H123.008C121.539 22.3547 121.407 22.099 122.386 21.0083L127.604 15.0548C127.938 14.7591 128.156 14.3569 128.22 13.9186C128.155 13.4729 127.923 13.0676 127.569 12.7824L123.036 7.76627C122.057 6.67555 122.19 6.41992 123.659 6.41992H124.234C124.816 6.35656 125.405 6.44802 125.938 6.68479C126.472 6.92155 126.932 7.29498 127.27 7.76627L130.265 11.1009Z" fill="white"/>
</svg>
