<svg width="221" height="204" viewBox="0 0 221 204" fill="none" xmlns="http://www.w3.org/2000/svg">
<circle cx="109.5" cy="91.5" r="68.5" fill="#D5F901"/>
<path d="M110.338 203.864C106.701 203.864 103.145 202.799 100.121 200.804C97.097 198.808 94.74 195.972 93.3481 192.654C91.9562 189.336 91.592 185.684 92.3016 182.162C93.0112 178.639 94.7626 175.403 97.3345 172.864C99.9063 170.324 103.183 168.595 106.75 167.894C110.318 167.193 114.015 167.553 117.375 168.927C120.736 170.302 123.608 172.629 125.629 175.616C127.649 178.602 128.728 182.113 128.728 185.705C128.752 188.096 128.292 190.468 127.377 192.682C126.461 194.896 125.107 196.907 123.395 198.598C121.682 200.289 119.646 201.625 117.404 202.53C115.162 203.434 112.76 203.888 110.338 203.864ZM110.338 174.809C108.156 174.809 106.022 175.448 104.208 176.646C102.393 177.843 100.979 179.544 100.144 181.535C99.309 183.526 99.0905 185.717 99.5163 187.831C99.942 189.944 100.993 191.886 102.536 193.409C104.079 194.933 106.045 195.971 108.185 196.391C110.326 196.812 112.544 196.596 114.56 195.771C116.577 194.947 118.3 193.55 119.512 191.758C120.725 189.966 121.372 187.86 121.372 185.705C121.399 184.267 121.131 182.838 120.586 181.504C120.041 180.17 119.23 178.959 118.2 177.942C117.17 176.925 115.943 176.123 114.592 175.585C113.241 175.047 111.794 174.783 110.338 174.809Z" fill="#7A42EB"/>
<path d="M110.338 109.436C106.701 109.436 103.145 108.371 100.121 106.376C97.097 104.38 94.74 101.544 93.3481 98.226C91.9562 94.9078 91.592 91.2565 92.3016 87.7339C93.0112 84.2113 94.7626 80.9756 97.3345 78.436C99.9063 75.8963 103.183 74.1668 106.75 73.4661C110.318 72.7654 114.015 73.1251 117.375 74.4995C120.736 75.874 123.608 78.2015 125.629 81.1878C127.649 84.1741 128.728 87.6851 128.728 91.2767C128.752 93.668 128.292 96.0399 127.377 98.2538C126.461 100.468 125.107 102.479 123.395 104.17C121.682 105.861 119.646 107.198 117.404 108.102C115.162 109.006 112.76 109.46 110.338 109.436ZM110.338 80.3811C108.156 80.3811 106.022 81.0201 104.208 82.2173C102.393 83.4145 100.979 85.1162 100.144 87.1071C99.309 89.098 99.0905 91.2888 99.5163 93.4023C99.942 95.5158 100.993 97.4572 102.536 98.981C104.079 100.505 106.045 101.543 108.185 101.963C110.326 102.383 112.544 102.168 114.56 101.343C116.577 100.518 118.3 99.1217 119.512 97.3299C120.725 95.5382 121.372 93.4316 121.372 91.2767C121.399 89.8386 121.131 88.4099 120.586 87.0761C120.041 85.7423 119.23 84.5306 118.2 83.5135C117.17 82.4965 115.943 81.6949 114.592 81.1567C113.241 80.6185 111.794 80.3547 110.338 80.3811Z" fill="#7A42EB"/>
<path d="M95.6262 189.337H80.9146C78.7079 189.337 77.2368 187.884 77.2368 185.705C77.2368 183.526 78.7079 182.073 80.9146 182.073H95.6262C97.8329 182.073 99.304 183.526 99.304 185.705C99.304 187.884 97.8329 189.337 95.6262 189.337ZM66.2026 189.337H55.1689C52.9621 189.337 51.4911 187.884 51.4911 185.705C51.4911 183.526 52.9621 182.073 55.1689 182.073H66.2026C68.4094 182.073 69.8804 183.526 69.8804 185.705C69.8804 187.884 68.4094 189.337 66.2026 189.337ZM40.4573 189.337H25.7453C23.5386 189.337 22.0675 187.884 22.0675 185.705C22.0675 183.526 23.5386 182.073 25.7453 182.073H40.4569C42.6636 182.073 44.1347 183.526 44.1347 185.705C44.1347 187.884 42.6641 189.337 40.4573 189.337ZM14.7116 189.337H3.67778C1.47103 189.337 0 187.884 0 185.705C0 183.526 1.47103 182.073 3.67778 182.073H14.7116C16.9183 182.073 18.3893 183.526 18.3893 185.705C18.3893 187.884 16.9183 189.337 14.7116 189.337Z" fill="#7A42EB"/>
<path d="M216.998 189.337H202.287C200.08 189.337 198.609 187.884 198.609 185.705C198.609 183.526 200.08 182.073 202.287 182.073H216.998C219.205 182.073 220.676 183.526 220.676 185.705C220.676 187.884 219.205 189.337 216.998 189.337ZM187.575 189.337H176.541C174.334 189.337 172.863 187.884 172.863 185.705C172.863 183.526 174.334 182.073 176.541 182.073H187.575C189.781 182.073 191.252 183.526 191.252 185.705C191.252 187.884 189.781 189.337 187.575 189.337ZM161.829 189.337H147.118C144.911 189.337 143.44 187.884 143.44 185.705C143.44 183.526 144.911 182.073 147.118 182.073H161.829C164.036 182.073 165.507 183.526 165.507 185.705C165.507 187.884 164.036 189.337 161.829 189.337ZM136.084 189.337H125.05C122.843 189.337 121.372 187.884 121.372 185.705C121.372 183.526 122.843 182.073 125.05 182.073H136.084C138.29 182.073 139.761 183.526 139.761 185.705C139.761 187.884 138.29 189.337 136.084 189.337Z" fill="#7A42EB"/>
<path d="M110.337 178.44C108.131 178.44 106.66 176.988 106.66 174.809V160.281C106.66 158.102 108.131 156.65 110.337 156.65C112.544 156.65 114.015 158.102 114.015 160.281V174.809C114.015 176.988 112.544 178.44 110.337 178.44ZM110.337 149.385C108.131 149.385 106.66 147.933 106.66 145.754V134.858C106.66 132.679 108.131 131.226 110.337 131.226C112.544 131.226 114.015 132.679 114.015 134.858V145.754C114.015 147.933 112.544 149.385 110.337 149.385ZM110.337 123.962C108.131 123.962 106.66 122.51 106.66 120.331V109.435C106.66 107.256 108.131 105.803 110.337 105.803C112.544 105.803 114.015 107.256 114.015 109.435V120.331C114.015 122.51 112.544 123.962 110.337 123.962Z" fill="#7A42EB"/>
<path d="M165.506 65.8532C164.659 65.8216 163.845 65.5222 163.182 64.9991C162.52 64.476 162.046 63.7569 161.829 62.9475C161.461 61.1314 162.932 58.9523 164.771 58.9523C174.334 57.4996 183.896 58.9523 184.264 58.9523C186.103 59.3153 187.574 61.1314 187.207 62.9475C186.839 64.7636 185 66.2162 183.161 65.8532C183.161 65.8532 174.334 64.7636 165.875 65.8532H165.506Z" fill="black"/>
<path d="M88.2705 58.5896C86.0638 58.5896 84.5927 57.137 84.5927 54.9579C84.5649 48.2332 81.8401 41.7934 77.0149 37.0481C72.1897 32.3028 65.6572 29.6385 58.8472 29.6385C52.0372 29.6385 45.5047 32.3028 40.6795 37.0481C35.8543 41.7934 33.1295 48.2332 33.1017 54.9579C33.1017 57.137 31.6306 58.5896 29.4239 58.5896C27.2171 58.5896 25.7461 57.137 25.7461 54.9579C25.7461 46.2888 29.2335 37.9747 35.4412 31.8448C41.649 25.7148 50.0684 22.271 58.8474 22.271C67.6264 22.271 76.0459 25.7148 82.2536 31.8448C88.4613 37.9747 91.9487 46.2888 91.9487 54.9579C91.9483 57.137 90.4773 58.5896 88.2705 58.5896Z" fill="black"/>
<path d="M176.54 145.754H128.728C126.521 145.754 125.05 144.302 125.05 142.122C125.05 139.943 126.521 138.491 128.728 138.491H176.54C186.286 138.463 195.625 134.627 202.516 127.822C209.407 121.017 213.291 111.795 213.319 102.172C213.319 84.7387 200.447 69.1218 183.161 65.8532L180.218 65.1266V62.221C179.851 32.0763 155.208 7.74295 125.417 7.74295C107.027 7.74295 88.6378 17.549 78.3394 32.8029L76.1326 35.7085L73.1901 33.5294C68.859 30.9495 63.9041 29.5694 58.8462 29.5342C55.4594 29.5134 52.1021 30.1569 48.9691 31.4272C45.836 32.6975 42.9895 34.5694 40.5947 36.9343C38.1999 39.2992 36.3043 42.1102 35.018 45.204C33.7317 48.2979 33.0802 51.6131 33.1013 54.9575V61.1319L30.8946 62.2214C17.2864 68.3957 7.35599 84.0126 7.35599 99.2665C7.35599 120.695 25.3777 138.491 47.0776 138.491H91.948C94.1547 138.491 95.6257 139.943 95.6257 142.122C95.6257 144.302 94.1547 145.754 91.948 145.754H47.0776C21.3318 145.754 0 124.689 0 99.2661C0 81.8331 10.6661 64.7632 25.7453 56.4101V54.9575C25.7271 50.66 26.5708 46.4014 28.2278 42.4275C29.8849 38.4537 32.3224 34.8431 35.3998 31.8043C38.4772 28.7654 42.1335 26.3584 46.1578 24.7221C50.182 23.0859 54.4946 22.2527 58.8467 22.2707C64.3635 22.2707 69.5128 23.3603 73.9263 25.9024C86.0634 10.2855 105.188 0.479492 125.049 0.479492C158.151 0.479492 185.367 26.629 187.574 59.3158C206.699 64.4001 220.675 82.1966 220.675 102.172C220.675 126.142 200.815 145.754 176.54 145.754Z" fill="black"/>
</svg>
