<svg width="182" height="212" viewBox="0 0 182 212" fill="none" xmlns="http://www.w3.org/2000/svg">
<circle cx="98.5" cy="83.5" r="83.5" fill="#D5F901"/>
<path d="M169.82 211.916H121.3C114.629 211.916 109.17 206.457 109.17 199.786V99.7138C109.17 93.0425 114.629 87.584 121.3 87.584H169.82C176.492 87.584 181.95 93.0425 181.95 99.7138V199.786C181.95 206.457 176.492 211.916 169.82 211.916ZM121.3 93.6487C117.964 93.6487 115.235 96.378 115.235 99.7138V199.786C115.235 203.122 117.964 205.851 121.3 205.851H169.82C173.156 205.851 175.885 203.122 175.885 199.786V99.7138C175.885 96.378 173.156 93.6487 169.82 93.6487H121.3Z" fill="black"/>
<path d="M181.95 187.657H109.17V111.845H181.95V187.657ZM115.236 181.592H175.885V117.91H115.236V181.592Z" fill="black"/>
<path d="M151.625 105.78H139.495C137.675 105.78 136.462 104.567 136.462 102.748C136.462 100.928 137.675 99.7153 139.495 99.7153H151.625C153.444 99.7153 154.657 100.928 154.657 102.748C154.657 104.567 153.444 105.78 151.625 105.78Z" fill="black"/>
<path d="M151.625 199.788H139.495C137.675 199.788 136.462 198.575 136.462 196.756C136.462 194.936 137.675 193.723 139.495 193.723H151.625C153.444 193.723 154.657 194.936 154.657 196.756C154.657 198.575 153.444 199.788 151.625 199.788Z" fill="black"/>
<path d="M109.169 142.17C107.35 142.17 106.137 140.957 106.137 139.137V136.105C106.137 134.285 107.35 133.072 109.169 133.072C110.989 133.072 112.201 134.285 112.201 136.105V139.137C112.201 140.957 110.989 142.17 109.169 142.17Z" fill="black"/>
<path d="M109.169 154.299C107.35 154.299 106.137 153.086 106.137 151.266V148.234C106.137 146.415 107.35 145.202 109.169 145.202C110.989 145.202 112.201 146.415 112.201 148.234V151.266C112.201 153.086 110.989 154.299 109.169 154.299Z" fill="black"/>
<path d="M160.723 172.494H130.399C128.579 172.494 127.366 171.281 127.366 169.461V148.234C127.366 146.415 128.579 145.202 130.399 145.202H160.723C162.543 145.202 163.756 146.415 163.756 148.234V169.461C163.756 171.281 162.543 172.494 160.723 172.494ZM133.431 166.429H157.691V151.266H133.431V166.429Z" fill="black"/>
<path d="M154.657 151.267H136.462C134.642 151.267 133.429 150.054 133.429 148.235V139.137C133.429 132.466 138.888 127.007 145.559 127.007C152.23 127.007 157.689 132.466 157.689 139.137V148.235C157.689 150.054 156.476 151.267 154.657 151.267ZM139.494 145.202H151.624V139.137C151.624 135.801 148.895 133.072 145.559 133.072C142.223 133.072 139.494 135.801 139.494 139.137V145.202H139.494Z" fill="black"/>
<path d="M81.8786 99.7154H51.5539C49.7344 99.7154 48.5215 98.5025 48.5215 96.683V75.4557C48.5215 73.6362 49.7344 72.4233 51.5539 72.4233H81.8786C83.6981 72.4233 84.911 73.6362 84.911 75.4557V96.683C84.911 98.5025 83.6981 99.7154 81.8786 99.7154ZM54.5862 93.6503H78.8463V78.4877H54.5862V93.6503Z" fill="black"/>
<path d="M75.8113 78.4861H57.6164C55.7969 78.4861 54.584 77.2732 54.584 75.4537V69.3886C54.584 62.7173 60.0425 57.2588 66.7138 57.2588C73.3852 57.2588 78.8437 62.7173 78.8437 69.3886V75.4537C78.844 77.2729 77.6308 78.4861 75.8113 78.4861ZM60.6491 72.421H72.7789V69.3886C72.7789 66.0528 70.0497 63.3235 66.7138 63.3235C63.378 63.3235 60.6487 66.0528 60.6487 69.3886V72.421H60.6491Z" fill="black"/>
<path d="M109.171 111.844H21.2282C19.4087 111.844 18.1958 110.631 18.1958 108.812V48.1618C18.1958 46.3423 19.4087 45.1294 21.2282 45.1294H109.171C110.99 45.1294 112.203 46.3423 112.203 48.1618V108.812C112.203 110.631 110.99 111.844 109.171 111.844ZM24.2609 105.779H106.138V51.1945H24.2609V105.779V105.779Z" fill="black"/>
<path d="M115.236 111.845H6.06641V45.4333C6.06641 38.4585 11.5249 33 18.4997 33H111.9C118.875 33 124.334 38.4585 124.334 45.4333V92.7402L120.088 93.6499C116.752 93.6499 115.236 96.6823 115.236 100.018V111.845ZM12.1312 105.78H109.171V99.715C109.171 93.9534 113.113 89.4047 118.268 88.1915V45.4333C118.268 41.7943 115.539 39.0651 111.9 39.0651H18.4994C14.8604 39.0651 12.1312 41.7943 12.1312 45.4333V105.78V105.78Z" fill="black"/>
<path d="M112.202 130.04H12.7365C5.76161 130.04 0 124.278 0 117.304V108.813C0 106.993 1.21288 105.78 3.03237 105.78H112.202C114.022 105.78 115.234 106.993 115.234 108.813V127.008C115.235 128.827 114.022 130.04 112.202 130.04ZM6.0651 111.845V117.304C6.0651 120.942 9.09747 123.975 12.7365 123.975H109.17V111.845H6.0651Z" fill="black"/>
<path d="M163.754 81.5193C161.934 81.5193 160.721 80.3064 160.721 78.4869V48.1618C160.721 46.3423 161.934 45.1294 163.754 45.1294C165.573 45.1294 166.786 46.3423 166.786 48.1618V78.4866C166.786 80.3064 165.573 81.5193 163.754 81.5193Z" fill="#7A42EB"/>
<path d="M163.753 81.5194C162.844 81.5194 162.237 81.2163 161.631 80.6097C160.418 79.3968 160.418 77.5773 161.631 76.3641L170.728 67.2666C171.941 66.0537 173.761 66.0537 174.974 67.2666C176.187 68.4795 176.187 70.299 174.974 71.5122L165.876 80.6097C165.27 81.2163 164.663 81.5194 163.753 81.5194Z" fill="#7A42EB"/>
<path d="M163.755 81.5194C162.845 81.5194 162.238 81.2163 161.632 80.6097L152.535 71.5122C151.322 70.2993 151.322 68.4798 152.535 67.2666C153.748 66.0537 155.567 66.0537 156.78 67.2666L165.878 76.3641C167.091 77.5769 167.091 79.3964 165.878 80.6097C165.271 81.2163 164.665 81.5194 163.755 81.5194Z" fill="#7A42EB"/>
<path d="M163.755 51.1941H133.43C131.61 51.1941 130.397 49.9813 130.397 48.1618C130.397 46.3423 131.61 45.1294 133.43 45.1294H163.755C165.574 45.1294 166.787 46.3423 166.787 48.1618C166.787 49.9813 165.574 51.1941 163.755 51.1941Z" fill="#7A42EB"/>
<path d="M142.527 60.292C141.617 60.292 141.011 59.9889 140.405 59.3823L131.307 50.2848C130.094 49.0719 130.094 47.2524 131.307 46.0392C132.52 44.826 134.339 44.8263 135.553 46.0392L144.65 55.1367C145.863 56.3495 145.863 58.169 144.65 59.3823C144.043 59.9885 143.437 60.292 142.527 60.292Z" fill="#7A42EB"/>
<path d="M133.43 51.1937C132.52 51.1937 131.913 50.8906 131.307 50.284C130.094 49.0711 130.094 47.2516 131.307 46.0384L140.405 36.9409C141.617 35.728 143.437 35.728 144.65 36.9409C145.863 38.1538 145.863 39.9733 144.65 41.1865L135.553 50.284C134.946 50.8902 134.34 51.1937 133.43 51.1937Z" fill="#7A42EB"/>
<path d="M42.4557 184.624C40.6362 184.624 39.4233 183.412 39.4233 181.592V151.267C39.4233 149.448 40.6362 148.235 42.4557 148.235C44.2752 148.235 45.4881 149.448 45.4881 151.267V181.592C45.4881 183.412 44.2752 184.624 42.4557 184.624Z" fill="#7A42EB"/>
<path d="M33.3575 163.397C32.4477 163.397 31.8411 163.094 31.2349 162.488C30.022 161.275 30.022 159.455 31.2349 158.242L40.3323 149.145C41.5452 147.932 43.3647 147.932 44.5779 149.145C45.7908 150.357 45.7908 152.177 44.5779 153.39L35.4805 162.488C34.8735 163.094 34.2672 163.397 33.3575 163.397Z" fill="#7A42EB"/>
<path d="M51.5531 163.397C50.6433 163.397 50.0367 163.094 49.4305 162.488L40.333 153.39C39.1201 152.177 39.1201 150.358 40.333 149.145C41.5459 147.932 43.3654 147.932 44.5786 149.145L53.6761 158.242C54.889 159.455 54.889 161.274 53.6761 162.488C53.0691 163.094 52.4628 163.397 51.5531 163.397Z" fill="#7A42EB"/>
<path d="M72.7805 184.625H42.4557C40.6362 184.625 39.4233 183.412 39.4233 181.593C39.4233 179.773 40.6362 178.561 42.4557 178.561H72.7805C74.6 178.561 75.8129 179.773 75.8129 181.593C75.8129 183.412 74.6 184.625 72.7805 184.625Z" fill="#7A42EB"/>
<path d="M72.7806 184.625C71.8709 184.625 71.2643 184.322 70.658 183.715L61.5605 174.618C60.3477 173.405 60.3477 171.585 61.5605 170.372C62.7734 169.159 64.5929 169.159 65.8061 170.372L74.9036 179.47C76.1165 180.682 76.1165 182.502 74.9036 183.715C74.297 184.322 73.6904 184.625 72.7806 184.625Z" fill="#7A42EB"/>
<path d="M63.6832 193.723C62.7734 193.723 62.1668 193.42 61.5605 192.813C60.3477 191.6 60.3477 189.781 61.5605 188.568L70.658 179.47C71.8709 178.257 73.6904 178.257 74.9036 179.47C76.1165 180.683 76.1165 182.503 74.9036 183.716L65.8061 192.813C65.1995 193.42 64.5929 193.723 63.6832 193.723Z" fill="#7A42EB"/>
</svg>
