<svg width="179" height="167" viewBox="0 0 179 167" fill="none" xmlns="http://www.w3.org/2000/svg">
<circle cx="88.5" cy="83.5" r="83.5" fill="#D5F901"/>
<path d="M117.863 106.509H125.576C126.749 106.509 127.809 106.983 128.573 107.747L152.33 131.207V110.669C152.33 110.385 152.349 110.181 152.385 110.041C152.693 108.043 154.435 106.509 156.545 106.509H168.523C169.422 106.509 170.153 105.787 170.153 104.899V33.93C170.153 33.0424 169.422 32.3201 168.523 32.3201H48.7285C47.8296 32.3201 47.0982 33.0424 47.0982 33.93V61.158C47.0982 63.4553 45.2116 65.3179 42.8856 65.3179C40.5595 65.3179 38.6729 63.455 38.6729 61.158V33.93C38.6729 28.4547 43.1838 24 48.7288 24H168.523C174.068 23.9997 178.579 28.4544 178.579 33.93V104.9C178.579 110.375 174.068 114.83 168.523 114.83H160.756V141.25C160.756 142.933 159.729 144.45 158.155 145.094C157.634 145.307 157.086 145.41 156.544 145.41C155.447 145.41 154.37 144.988 153.564 144.192L123.829 114.83H117.864C115.537 114.83 113.651 112.967 113.651 110.67C113.651 108.373 115.537 106.509 117.863 106.509Z" fill="black"/>
<path d="M10.0557 74.8823H93.9094C99.4541 74.8823 103.965 79.3367 103.965 84.8124V133.228C103.965 138.703 99.4545 143.158 93.9094 143.158H41.412L20.143 164.161C19.3369 164.957 18.2595 165.379 17.1633 165.379C16.6206 165.379 16.073 165.276 15.5519 165.063C13.9782 164.419 12.9513 162.902 12.9513 161.219V143.158H10.056C4.51138 143.158 0.000160217 138.703 0.000160217 133.228V84.8124C-0.000190735 79.3367 4.51067 74.8823 10.0557 74.8823ZM8.42512 133.228C8.42512 134.115 9.15652 134.838 10.0553 134.838H17.1622C19.4084 134.838 21.2389 136.575 21.3627 138.763C21.3707 138.834 21.3756 138.91 21.3756 138.998V151.176L36.6724 136.07C37.4359 135.309 38.4941 134.837 39.6646 134.837H93.9094C94.8083 134.837 95.5397 134.115 95.5397 133.227V84.8124C95.5397 83.9248 94.8083 83.2025 93.9094 83.2025H10.0553C9.15652 83.2025 8.42512 83.9248 8.42512 84.8124V133.228Z" fill="#201F2E"/>
<path d="M51.9792 104.861C54.3084 104.861 56.1919 106.72 56.1919 109.021C56.1919 111.317 54.3084 113.181 51.9792 113.181C49.6535 113.181 47.7666 111.317 47.7666 109.021C47.7666 106.72 49.6539 104.861 51.9792 104.861Z" fill="#201F2E"/>
<path d="M146.961 51.5039C149.287 51.5039 151.173 53.3667 151.173 55.6635C151.173 57.9606 149.287 59.8231 146.961 59.8231H70.2896C67.9632 59.8231 66.077 57.9602 66.077 55.6635C66.077 53.3664 67.9636 51.5039 70.2896 51.5039H146.961Z" fill="#7A42EB"/>
<path d="M117.863 79.0078H146.961C149.287 79.0078 151.173 80.8706 151.173 83.1674C151.173 85.4641 149.287 87.327 146.961 87.327H117.863C115.537 87.327 113.651 85.4641 113.651 83.1674C113.651 80.8706 115.537 79.0078 117.863 79.0078Z" fill="#7A42EB"/>
<path d="M71.5574 104.861C73.8866 104.861 75.77 106.72 75.77 109.021C75.77 111.317 73.8866 113.181 71.5574 113.181C69.2317 113.181 67.3447 111.317 67.3447 109.021C67.3447 106.72 69.232 104.861 71.5574 104.861Z" fill="#201F2E"/>
<path d="M32.4114 104.861C34.7406 104.861 36.624 106.72 36.624 109.021C36.624 111.317 34.7406 113.181 32.4114 113.181C30.0857 113.181 28.1987 111.317 28.1987 109.021C28.1987 106.72 30.086 104.861 32.4114 104.861Z" fill="#201F2E"/>
</svg>
