<svg width="183" height="198" viewBox="0 0 183 198" fill="none" xmlns="http://www.w3.org/2000/svg">
<circle cx="91.5" cy="70.5" r="70.5" fill="#D5F901"/>
<path d="M111.986 197.066H71.014C69.0007 197.066 67.3687 195.454 67.3687 193.466V177.416C64.1369 176.342 60.9794 175.05 57.9334 173.558L46.4413 184.907C45.018 186.312 42.7094 186.312 41.2858 184.907L12.3135 156.297C10.8899 154.891 10.8899 152.612 12.3135 151.206L23.8057 139.858C22.2942 136.851 20.9871 133.732 19.8984 130.541H3.64535C1.63199 130.541 0 128.929 0 126.941V86.4821C0 84.4939 1.63199 82.8824 3.64535 82.8824H19.8984C20.9867 79.6907 22.2945 76.5731 23.8057 73.5653L12.3135 62.2171C10.8899 60.8113 10.8899 58.5319 12.3135 57.1262L41.2858 28.5167C42.7091 27.111 45.0176 27.111 46.4413 28.5167L57.9334 39.865C60.979 38.3724 64.1369 37.0817 67.3687 36.0066V19.9571C67.3683 17.969 69.0007 16.3574 71.014 16.3574H111.987C114 16.3574 115.632 17.969 115.632 19.9571V36.0066C118.864 37.0813 122.021 38.3728 125.067 39.865L136.559 28.5167C137.983 27.111 140.291 27.111 141.715 28.5167L170.687 57.1262C172.111 58.5319 172.111 60.8113 170.687 62.2171L159.195 73.5653C160.707 76.5724 162.014 79.6903 163.102 82.8824H179.355C181.368 82.8824 183 84.4939 183 86.4821V126.942C183 128.93 181.368 130.541 179.355 130.541H163.102C162.013 133.733 160.705 136.851 159.195 139.858L170.687 151.207C172.11 152.612 172.11 154.892 170.687 156.298L141.714 184.907C140.291 186.312 137.982 186.312 136.559 184.907L125.067 173.558C122.021 175.051 118.863 176.342 115.631 177.416V193.465C115.632 195.454 113.999 197.066 111.986 197.066ZM74.6594 189.866H108.341V174.781C108.341 173.187 109.403 171.783 110.95 171.33C115.485 170.001 119.881 168.202 124.018 165.985C125.437 165.224 127.193 165.476 128.336 166.603L139.138 177.27L162.954 153.751L152.152 143.085C151.011 141.957 150.756 140.223 151.526 138.821C153.772 134.738 155.593 130.396 156.939 125.917C157.398 124.389 158.82 123.341 160.434 123.341H175.71V90.0807H160.433C158.819 90.0807 157.398 89.0328 156.938 87.5049C155.592 83.0257 153.771 78.6841 151.525 74.6001C150.755 73.199 151.01 71.4642 152.151 70.3369L162.953 59.6702L139.137 36.152L128.335 46.8187C127.193 47.9461 125.437 48.1973 124.018 47.4367C119.881 45.2188 115.484 43.4209 110.949 42.0917C109.402 41.6382 108.341 40.2342 108.341 38.6406V23.5568H74.6586V38.6421C74.6586 40.2356 73.5975 41.6396 72.0502 42.0932C67.5152 43.4223 63.1186 45.2206 58.9818 47.4382C57.5628 48.1984 55.8061 47.9471 54.6645 46.8202L43.8625 36.1534L20.046 59.6716L30.848 70.3383C31.9893 71.4656 32.2441 73.2004 31.4739 74.6016C29.2282 78.6858 27.4071 83.0274 26.0611 87.5063C25.6018 89.0342 24.1799 90.0821 22.5662 90.0821H7.29069V123.342H22.5673C24.181 123.342 25.6028 124.39 26.0621 125.918C27.4082 130.397 29.2292 134.738 31.4749 138.823C32.2452 140.224 31.9907 141.959 30.8491 143.086L20.0471 153.753L43.8635 177.271L54.6655 166.604C55.8075 165.477 57.5639 165.226 58.9828 165.986C63.1193 168.204 67.5159 170.002 72.0512 171.331C73.5985 171.785 74.6597 173.189 74.6597 174.782V189.867H74.6594V189.866ZM91.5 142.796C71.3511 142.796 54.9583 126.608 54.9583 106.711C54.9583 86.8145 71.3511 70.6274 91.5 70.6274C111.649 70.6274 128.042 86.8149 128.042 106.711C128.042 126.608 111.649 142.796 91.5 142.796ZM91.5 77.8271C75.3713 77.8271 62.2493 90.7848 62.2493 106.711C62.2493 122.638 75.3713 135.596 91.5 135.596C107.629 135.596 120.751 122.638 120.751 106.711C120.751 90.7848 107.629 77.8271 91.5 77.8271Z" fill="black"/>
<path d="M91.4989 155.754C89.4855 155.754 87.8535 154.142 87.8535 152.154C87.8535 150.166 89.4855 148.554 91.4989 148.554C109.444 148.554 125.508 137.333 131.472 120.631C132.142 118.756 134.223 117.773 136.123 118.434C138.021 119.095 139.018 121.151 138.348 123.026C131.357 142.601 112.53 155.754 91.4989 155.754Z" fill="#7A42EB"/>
<path d="M137.473 112.47C137.415 112.47 137.358 112.469 137.3 112.466C135.289 112.374 133.735 110.689 133.828 108.702C133.86 108.04 133.875 107.37 133.875 106.71C133.875 104.722 135.507 103.11 137.521 103.11C139.534 103.11 141.166 104.722 141.166 106.71C141.166 107.482 141.148 108.265 141.111 109.038C141.02 110.967 139.408 112.47 137.473 112.47Z" fill="#7A42EB"/>
</svg>
