<svg width="179" height="198" viewBox="0 0 179 198" fill="none" xmlns="http://www.w3.org/2000/svg">
<circle cx="89.5" cy="114.5" r="83.5" fill="#D5F901"/>
<path d="M81.0559 153.978H98.8637C101.324 153.978 103.316 152.012 103.316 149.582C103.316 147.152 101.324 145.186 98.8637 145.186H81.0559C78.5955 145.186 76.604 147.152 76.604 149.582C76.604 152.012 78.5955 153.978 81.0559 153.978Z" fill="#191919"/>
<path d="M137.021 35.6616C131.343 14.8883 112.277 0 89.9613 0C67.6454 0 48.5821 14.8883 42.9014 35.6616C19.1966 39.0206 0.922852 59.2049 0.922852 83.5275C0.922852 110.192 22.8917 131.886 49.894 131.886H54.3459V158.374C54.3459 163.23 58.3318 167.166 63.2498 167.166H116.673C121.591 167.166 125.577 163.23 125.577 158.374V131.886H130.029C157.031 131.886 179 110.192 179 83.5275C179 59.2049 160.726 39.0206 137.021 35.6616ZM116.673 158.374H63.2498V140.789H116.673V158.374ZM116.673 131.997H63.2498V79.2426H116.673V131.997ZM116.673 70.4502H63.2498V61.6579H116.673V70.4502ZM130.029 123.093C128.637 123.093 127.132 123.093 125.577 123.093V61.6579C125.577 56.8014 121.591 52.8655 116.673 52.8655H63.2498C58.3318 52.8655 54.3459 56.8014 54.3459 61.6579V123.093C52.7909 123.093 51.2859 123.093 49.894 123.093C27.7648 123.093 9.8267 105.38 9.8267 83.5275C9.8267 61.6754 27.7648 43.9618 49.894 43.9618C50.0453 43.9618 50.1879 44.0027 50.3392 44.0058C52.5593 24.2288 69.343 8.79237 89.9613 8.79237C110.58 8.79237 127.363 24.2288 129.583 44.0058C129.735 44.0027 129.877 43.9618 130.029 43.9618C152.158 43.9618 170.096 61.6754 170.096 83.5275C170.096 105.38 152.158 123.093 130.029 123.093Z" fill="#191919"/>
<path fill-rule="evenodd" clip-rule="evenodd" d="M80.9295 86.9289C82.1688 85.6904 84.1782 85.6904 85.4175 86.9289L103 104.5L85.4175 122.071C84.1782 123.31 82.1688 123.31 80.9295 122.071C79.6902 120.833 79.6902 118.825 80.9295 117.586L94.024 104.5L80.9295 91.414C79.6902 90.1754 79.6902 88.1674 80.9295 86.9289Z" fill="#7A42EB"/>
</svg>
