<svg width="63" height="63" viewBox="0 0 63 63" fill="none" xmlns="http://www.w3.org/2000/svg">
<path d="M56.0128 12.0691C55.5284 11.4619 54.6375 11.3584 54.0242 11.8369C53.9477 11.897 53.8782 11.9626 53.8188 12.0339C53.3925 12.532 53.3655 13.2705 53.789 13.8005C57.7904 18.8105 59.905 24.8401 59.905 31.2349C59.905 46.7725 47.1036 59.4136 31.3688 59.4136C15.634 59.4136 2.83276 46.7725 2.83276 31.2349C2.83276 15.6973 15.6342 3.05615 31.3689 3.05615C37.8418 3.05615 43.9437 5.14282 49.0158 9.08862C49.554 9.50684 50.3019 9.48022 50.8047 9.05908C50.877 9.00049 50.9435 8.93188 51.0044 8.85645C51.4888 8.24927 51.384 7.36963 50.7693 6.89258C45.1929 2.55249 38.4836 0.258789 31.3689 0.258789C22.9895 0.258789 15.113 3.4812 9.18816 9.33179C3.26335 15.1824 0 22.9604 0 31.2349C0 39.5093 3.26335 47.2874 9.18816 53.1379C15.113 58.9885 22.9895 62.2109 31.3689 62.2109C39.7484 62.2109 47.6249 58.9885 53.5497 53.1379C59.4745 47.2874 62.7379 39.5093 62.7379 31.2349C62.7379 24.2053 60.4121 17.5769 56.0128 12.0691Z" fill="#000000"/>
<path d="M46.6888 31.2346C46.6888 32.0068 47.3219 32.6333 48.1052 32.6333H49.8586C50.6405 32.6333 51.275 32.0068 51.275 31.2346C51.275 30.4624 50.6405 29.8359 49.8586 29.8359H48.1052C47.3218 29.8359 46.6888 30.4624 46.6888 31.2346Z" fill="black"/>
<path d="M45.1547 21.7603C44.4762 22.1462 44.2454 23.0022 44.6363 23.6707C44.8982 24.1196 45.3741 24.3701 45.8643 24.3701C46.1036 24.3701 46.3473 24.3101 46.5711 24.1826L48.0894 23.3169C48.7664 22.9309 48.9987 22.075 48.6078 21.4065C48.2169 20.7378 47.3515 20.5085 46.673 20.8945L45.1547 21.7603Z" fill="black"/>
<path d="M46.5711 38.2871L48.0895 39.1528C48.7666 39.5388 48.9988 40.3948 48.6079 41.0632C48.3458 41.5125 47.8699 41.7627 47.3799 41.7627C47.1391 41.7627 46.8955 41.7026 46.6731 41.5752L45.1548 40.7095C44.4763 40.3235 44.2453 39.4675 44.6363 38.7991C45.0273 38.1304 45.8927 37.9011 46.5711 38.2871Z" fill="black"/>
<path d="M41.322 14.2117C40.645 13.8257 39.7782 14.0549 39.3872 14.7236L38.5105 16.2229C38.1196 16.8931 38.3518 17.7476 39.0289 18.1335C39.2513 18.261 39.4949 18.321 39.7357 18.321C40.2257 18.321 40.7016 18.0708 40.9637 17.6216L41.8405 16.1223C42.2314 15.4536 41.9991 14.5977 41.322 14.2117Z" fill="black"/>
<path d="M39.0289 44.3359C39.7074 43.95 40.5728 44.178 40.9637 44.8479L41.8405 46.3472C42.2313 47.0159 41.999 47.8718 41.322 48.2578C41.0983 48.3853 40.856 48.4453 40.6152 48.4453C40.1251 48.4453 39.6492 48.1948 39.3872 47.7458L38.5104 46.2466C38.1196 45.5767 38.3519 44.7219 39.0289 44.3359Z" fill="black"/>
<path fill-rule="evenodd" clip-rule="evenodd" d="M39.7259 39.5554C40.2513 39.0364 40.2513 38.1958 39.7259 37.677L34.4072 32.4236C34.5474 32.064 34.6254 31.6753 34.6254 31.2668V23.075C34.6254 21.3013 33.1651 19.8594 31.3691 19.8594C29.5731 19.8594 28.1129 21.3013 28.1129 23.075V28.0513H23.5789C21.7829 28.0513 20.3212 29.4946 20.3212 31.2683C20.3212 33.0417 21.7829 34.4851 23.5789 34.4851H31.3691L31.3995 34.4844L31.4203 34.4832L31.4315 34.4824C31.8012 34.4753 32.1581 34.4082 32.4881 34.2878L37.8236 39.5554C38.0856 39.8154 38.4298 39.9456 38.774 39.9456C39.1197 39.9456 39.4637 39.8154 39.7259 39.5554ZM23.5789 31.8276C23.2659 31.8276 23.0123 31.5759 23.0123 31.2683C23.0123 30.9604 23.2659 30.7087 23.5789 30.7087H28.1129V31.2668C28.1129 31.4585 28.1299 31.6458 28.1625 31.8276H23.5789ZM31.9342 31.2668C31.9342 31.5759 31.6807 31.8264 31.3691 31.8264C31.0575 31.8264 30.804 31.5759 30.804 31.2668V23.075C30.804 22.7671 31.0575 22.5168 31.3691 22.5168C31.6807 22.5168 31.9342 22.7671 31.9342 23.075V31.2668Z" fill="black"/>
<path d="M29.9525 47.7615C29.9525 46.988 30.587 46.3628 31.3689 46.3628C32.1508 46.3628 32.7853 46.9878 32.7853 47.7615V49.4929C32.7853 50.2651 32.1508 50.8916 31.3689 50.8916C30.587 50.8916 29.9525 50.2651 29.9525 49.4929V47.7615Z" fill="black"/>
<path d="M31.3689 16.1067C32.1508 16.1067 32.7853 15.4814 32.7853 14.708V12.9766C32.7853 12.2043 32.1508 11.5779 31.3689 11.5779C30.587 11.5779 29.9525 12.2043 29.9525 12.9766V14.708C29.9525 15.4817 30.587 16.1067 31.3689 16.1067Z" fill="black"/>
<path d="M23.0021 18.3208C22.512 18.3208 22.0361 18.0703 21.7741 17.6213L20.8973 16.1221C20.5065 15.4536 20.7388 14.5977 21.4158 14.2117C22.0943 13.8257 22.9597 14.0549 23.3506 14.7236L24.2273 16.2229C24.6182 16.8928 24.3859 17.7473 23.7089 18.1333C23.4865 18.2607 23.2429 18.3208 23.0021 18.3208Z" fill="black"/>
<path d="M23.7089 44.3359C23.0319 43.95 22.1651 44.178 21.7741 44.8479L20.8974 46.3472C20.5065 47.0159 20.7387 47.8718 21.4158 48.2578C21.6396 48.3853 21.8818 48.4453 22.1226 48.4453C22.6126 48.4453 23.0885 48.1951 23.3506 47.7458L24.2274 46.2466C24.6183 45.5767 24.3861 44.7222 23.7089 44.3359Z" fill="black"/>
<path d="M16.0647 20.8945L17.583 21.7603C18.2615 22.1462 18.4924 23.0022 18.1015 23.6707C17.8394 24.1199 17.3634 24.3701 16.8734 24.3701C16.6341 24.3701 16.3904 24.3101 16.1666 24.1826L14.6483 23.3169C13.9712 22.9309 13.739 22.075 14.1299 21.4065C14.5209 20.7378 15.3877 20.5085 16.0647 20.8945Z" fill="black"/>
<path d="M16.1666 38.2871L14.6483 39.1528C13.9713 39.5388 13.739 40.3948 14.1298 41.0632C14.3918 41.5122 14.8677 41.7627 15.3579 41.7627C15.5987 41.7627 15.8423 41.7026 16.0647 41.5752L17.583 40.7095C18.2615 40.3235 18.4923 39.4675 18.1014 38.7991C17.7104 38.1304 16.8451 37.9011 16.1666 38.2871Z" fill="black"/>
<path d="M14.6328 29.8359C15.4161 29.8359 16.0492 30.4624 16.0492 31.2346C16.0492 32.0068 15.4162 32.6333 14.6328 32.6333H12.8793C12.0975 32.6333 11.463 32.0068 11.463 31.2346C11.463 30.4624 12.0975 29.8359 12.8793 29.8359H14.6328Z" fill="black"/>
<path fill-rule="evenodd" clip-rule="evenodd" d="M6.39648 31.2349C6.39648 17.6372 17.5987 6.5752 31.369 6.5752C45.1392 6.5752 56.3415 17.6372 56.3415 31.2349C56.3415 44.8325 45.1392 55.8945 31.369 55.8945C17.5987 55.8945 6.39648 44.8325 6.39648 31.2349ZM9.22925 31.2349C9.22925 43.2898 19.1611 53.0972 31.369 53.0972C43.5769 53.0972 53.5087 43.2898 53.5087 31.2349C53.5087 19.1799 43.5769 9.37256 31.369 9.37256C19.1611 9.37256 9.22925 19.1799 9.22925 31.2349Z" fill="black"/>
</svg>
