<?xml version="1.0" encoding="utf-8"?>
<!-- Generator: Adobe Illustrator 24.0.0, SVG Export Plug-In . SVG Version: 6.00 Build 0)  -->
<svg version="1.1"
	 id="svg8" xmlns:cc="http://creativecommons.org/ns#" xmlns:dc="http://purl.org/dc/elements/1.1/" xmlns:inkscape="http://www.inkscape.org/namespaces/inkscape" xmlns:rdf="http://www.w3.org/1999/02/22-rdf-syntax-ns#" xmlns:sodipodi="http://sodipodi.sourceforge.net/DTD/sodipodi-0.dtd" xmlns:svg="http://www.w3.org/2000/svg"
	 xmlns="http://www.w3.org/2000/svg" xmlns:xlink="http://www.w3.org/1999/xlink" x="0px" y="0px" viewBox="0 0 46.1 38.1"
	 style="enable-background:new 0 0 46.1 38.1;" xml:space="preserve">
<g id="layer1">
	<path fill="#FFFFFF" id="path2422" d="M5,10c-1.7,0-3,1.4-3,3v14c0,1.7,1.4,3,3,3h3.1C8,30.3,8,30.6,8,31c0,2.2,1.8,4,4,4c2.2,0,4-1.8,4-4
		c0-0.4,0-0.6-0.1-1H19c0.8,0,1.5-0.3,2-0.8c0.5,0.5,1.2,0.8,2,0.8h14c1.6,0,3-1.3,3-3v-3.1c0.3,0.1,0.6,0.1,1,0.1c2.2,0,4-1.8,4-4
		c0-2.2-1.8-4-4-4c-0.4,0-0.6,0-1,0.1V13c0-1.6-1.3-3-3-3h-4.8c-0.9,0-1.3,1-0.7,1.7C31.8,12,32,12.5,32,13c0,1.1-0.9,2-2,2
		s-2-0.9-2-2c0-0.5,0.2-1,0.5-1.3c0.6-0.6,0.1-1.7-0.7-1.7H23c-0.8,0-1.5,0.3-2,0.8c-0.5-0.5-1.2-0.8-2-0.8L5,10z M26.1,12
		C26,12.4,26,12.6,26,13c0,2.2,1.8,4,4,4s4-1.8,4-4c0-0.4,0-0.6-0.1-1H37c0.5,0,1,0.4,1,1v4.8c0,0.9,1,1.3,1.7,0.7
		C40,18.2,40.5,18,41,18c1.1,0,2,0.9,2,2c0,1.1-0.9,2-2,2c-0.5,0-1-0.2-1.3-0.5C39,20.9,38,21.4,38,22.2V27c0,0.5-0.4,1-1,1H23
		c-0.6,0-1-0.5-1-1v-3.5v-1.3c0-0.9-1-1.3-1.7-0.7C20,21.8,19.5,22,19,22c-1.1,0-2-0.9-2-2c0-1.1,0.9-2,2-2c0.5,0,1,0.2,1.3,0.5
		c0.6,0.6,1.7,0.1,1.7-0.7v-1.3V13c0-0.5,0.4-1,1-1L26.1,12z"/>
</g>
</svg>
