<svg id="Layer_1" data-name="Layer 1" xmlns="http://www.w3.org/2000/svg" viewBox="0 0 64 64">
    <rect fill="white" x="23" y="5" width="2" height="2"/>
    <rect fill="white" x="13" y="5" width="8" height="2"/>
    <rect fill="white" x="15" y="57" width="8" height="2"/>
    <rect fill="white" x="29" y="57" width="2" height="2"/>
    <rect fill="white" x="7" y="57" width="2" height="2"/>
    <path fill="white" d="M9,30.59V33h2V43H9v2H29V43H27V33h2V30.59l-10-10ZM13,33h2V43H13Zm8,0V43H17V33Zm4,10H23V33h2ZM11.41,31,19,23.41,26.59,31Z"/><rect x="9" y="17" width="2" height="2"/>
    <rect fill="white" x="13" y="17" width="16" height="2"/>
    <path fill="white" d="M35,11V22h2V11h4V9H37A2,2,0,0,0,35,11Z"/>
    <path fill="white" d="M61.54,30.12,60,28.59V10a5,5,0,0,0-5-5H36.9A5,5,0,0,0,32,1H6A5,5,0,0,0,1,6V58a5,5,0,0,0,5,5H32a5,5,0,0,0,5-5V45H58a5,5,0,0,0,5-5V33.66A5,5,0,0,0,61.54,30.12ZM6,3H32a3,3,0,0,1,2.86,2.14A5,5,0,0,0,31.1,9H3V6A3,3,0,0,1,6,3ZM31,13H5V51H33V44a4.84,4.84,0,0,0,2,.93V53H3V11H31Zm0,27v9H7V15H31V40Zm1,21H6a3,3,0,0,1-3-3V55H35v3A3,3,0,0,1,32,61ZM61,40a3,3,0,0,1-3,3H36a3,3,0,0,1-3-3V10a3,3,0,0,1,3-3H55a3,3,0,0,1,3,3V29.41l2.12,2.13A3,3,0,0,1,61,33.66Z"/>
    <path fill="white" d="M47,18a3,3,0,0,1,3,3h2a5,5,0,0,0-4-4.9V14H46v2H42v5a5,5,0,0,0,5,5,3,3,0,0,1,3,3v3H47a3,3,0,0,1-3-3H42a5,5,0,0,0,4,4.9V36h2V34h4V29a5,5,0,0,0-5-5,3,3,0,0,1-3-3V18Z"/>
    <rect fill="white" x="35" y="24" width="2" height="2"/>
    <rect fill="white" x="35" y="28" width="2" height="2"/>
    <rect fill="white" x="57" y="39" width="2" height="2"/>
    <rect fill="white" x="53" y="39" width="2" height="2"/>
    <rect fill="white" x="49" y="39" width="2" height="2"/>
</svg>