<svg width="63" height="63" viewBox="0 0 63 63" fill="none" xmlns="http://www.w3.org/2000/svg">
<path d="M23.9794 39.0389C24.4694 38.5488 24.4694 37.7541 23.9794 37.2639L22.4737 35.7582C21.9836 35.2683 21.1889 35.2683 20.6987 35.7582C20.2087 36.2483 20.2087 37.0429 20.6987 37.5331L22.2045 39.0389C22.4496 39.2838 22.7707 39.4064 23.0919 39.4064C23.413 39.4064 23.7344 39.2838 23.9794 39.0389Z" fill="white"/>
<path d="M7.89792 22.9572C8.38799 22.4672 9.18264 22.4674 9.67272 22.9572L19.2104 32.4949C19.7005 32.9851 19.7005 33.7798 19.2104 34.2698C18.9655 34.5148 18.6442 34.6374 18.323 34.6374C18.0019 34.6374 17.6807 34.5148 17.4356 34.2698L7.89792 24.7321C7.40785 24.2419 7.40785 23.4473 7.89792 22.9572Z" fill="white"/>
<path fill-rule="evenodd" clip-rule="evenodd" d="M26.1911 4.49421C23.2929 1.59608 19.4399 0 15.3415 0C11.2431 0 7.38995 1.59608 4.49183 4.49421C1.59809 7.38794 0.00439453 11.241 0.00439453 15.3438C0.00439453 19.4465 1.59809 23.2996 4.49183 26.1933L36.8044 58.5059C39.7026 61.4039 43.5557 63 47.6541 63C51.7525 63 55.6057 61.4039 58.5037 58.5058C61.4017 55.6078 62.9977 51.7548 62.9977 47.6562C62.9977 43.5578 61.4018 39.7048 58.5037 36.8067L26.1911 4.49421ZM6.26675 24.4184C3.84702 21.9988 2.51448 18.7759 2.51448 15.3436C2.51448 11.9114 3.84714 8.6886 6.26675 6.26888C8.69074 3.84501 11.9135 2.50996 15.3415 2.50996C18.7695 2.50996 21.9923 3.84501 24.4164 6.269L34.014 15.8666L34.0187 15.8691C31.6677 15.3789 29.2405 15.444 26.9307 16.0563L26.9321 16.0537L20.7817 9.9033C19.3286 8.45028 17.3965 7.64998 15.3415 7.64998C13.2865 7.64998 11.3544 8.45028 9.90129 9.9033C6.90164 12.9031 6.90164 17.7842 9.90129 20.784L26.6791 37.5618C29.2974 40.1801 33.4107 40.5632 36.4598 38.4727C37.0258 38.0845 37.7094 37.9402 38.3841 38.0661C39.0589 38.1919 39.6443 38.5732 40.0325 39.1394C40.4207 39.7057 40.5651 40.3892 40.4392 41.064C40.3134 41.7388 39.9321 42.3242 39.3658 42.7124C38.3442 43.4128 37.2264 43.9606 36.0434 44.3406C34.7727 44.7487 33.4549 44.9556 32.126 44.9556C28.694 44.9559 25.4688 43.6207 23.0444 41.1964L6.26675 24.4184ZM20.9424 25.1896C21.6995 26.3157 22.8498 27.0795 24.1815 27.3402C25.5127 27.6012 26.8665 27.3277 27.9925 26.5707C30.0386 25.1947 32.7921 25.4646 34.5407 27.2119L34.5414 27.2127L35.0389 27.7102L35.0402 27.7113L51.3197 43.9911C52.2987 44.9701 52.8379 46.2717 52.8379 47.6564C52.8379 49.0409 52.2987 50.3428 51.3197 51.3219C50.3405 52.3009 49.0387 52.8402 47.6542 52.8402C46.2696 52.8402 44.9679 52.3009 43.9888 51.3219L38.6638 45.9969C39.4012 45.649 40.1112 45.2447 40.7852 44.7827C41.9044 44.0155 42.6579 42.8583 42.9068 41.5244C43.1556 40.1905 42.8701 38.8395 42.103 37.7203C41.3358 36.6011 40.1786 35.8476 38.8448 35.5988C37.5105 35.3503 36.1597 35.6354 35.0407 36.4028C32.9883 37.8099 30.2182 37.5511 28.4542 35.7871L11.6761 19.0092C9.65507 16.9882 9.65507 13.6992 11.6761 11.6782C12.6552 10.6991 13.9569 10.1599 15.3415 10.1599C16.7261 10.1599 18.0278 10.6991 19.0069 11.6782L24.3319 17.0031C23.6343 17.3313 22.9622 17.7098 22.3233 18.1395C19.9989 19.7024 19.3793 22.8651 20.9424 25.1896ZM56.7289 56.731C54.305 59.155 51.0821 60.49 47.6541 60.49C44.2261 60.49 41.0032 59.155 38.5793 56.731L28.9972 47.1488L28.9943 47.1472C30.0135 47.3572 31.0614 47.4656 32.1262 47.4655C33.4584 47.4655 34.7805 47.2894 36.068 46.9459L36.0664 46.9489L42.214 53.0966C43.6673 54.5496 45.5993 55.3499 47.6542 55.3499C49.7091 55.3499 51.6412 54.5496 53.0944 53.0965C54.5476 51.6432 55.3479 49.711 55.3479 47.6561C55.3479 45.6011 54.5476 43.6689 53.0944 42.2159L36.3162 25.4378C33.7216 22.8433 29.6317 22.4439 26.592 24.4877C26.0223 24.8708 25.3377 25.009 24.6639 24.8771C23.9902 24.7452 23.4083 24.3588 23.0252 23.7892C22.2345 22.6131 22.5479 21.013 23.7238 20.2222C24.7162 19.555 25.8025 19.0299 26.9526 18.6618C31.5579 17.1886 36.5379 18.3917 39.9497 21.8021L39.9601 21.8124L56.729 38.5815C59.153 41.0053 60.4879 44.2283 60.4879 47.6562C60.4879 51.0843 59.1529 54.3071 56.7289 56.731Z" fill="white"/>
</svg>
