<svg width="22" height="21" viewBox="0 0 22 21" fill="none" xmlns="http://www.w3.org/2000/svg">
<path d="M4.92603 6.97239H0.362316V20.9988H4.92603V6.97239Z" fill="#ABABAB"/>
<path d="M2.64478 5.05577C1.18088 5.05577 0 3.92423 0 2.52789C0 1.13271 1.18088 0 2.64478 0C4.10258 0 5.28712 1.13271 5.28712 2.52789C5.28712 3.92423 4.1038 5.05577 2.64478 5.05577Z" fill="#ABABAB"/>
<path d="M22 21H17.4412V14.1793C17.4412 12.5531 17.4119 10.4603 15.0721 10.4603C12.6993 10.4603 12.3383 12.2335 12.3383 14.0626V21H7.78552V6.97239H12.1553V8.89018H12.2175C12.825 7.7878 14.3133 6.62476 16.5311 6.62476C21.1473 6.62476 22 9.52944 22 13.3067V21Z" fill="#ABABAB"/>
</svg>
