<svg width="21" height="21" viewBox="0 0 21 21" fill="none" xmlns="http://www.w3.org/2000/svg">
<path fill-rule="evenodd" clip-rule="evenodd" d="M20.6031 6.14927C20.5521 5.07795 20.3863 4.33823 20.1312 3.70054C19.8761 3.03734 19.5318 2.47617 18.9706 1.91501C18.4094 1.35384 17.8483 1.00949 17.1851 0.75441C16.5474 0.499334 15.8077 0.333534 14.7364 0.282519C13.6523 0.231504 13.3079 0.21875 10.5659 0.21875C7.82379 0.21875 7.47944 0.231504 6.39536 0.282519C5.32404 0.333534 4.59708 0.499334 3.94663 0.75441C3.28343 1.00949 2.72227 1.35384 2.1611 1.91501C1.59993 2.47617 1.25558 3.03734 1.0005 3.70054C0.745427 4.33823 0.579628 5.07795 0.528613 6.14927C0.477598 7.23334 0.464844 7.5777 0.464844 10.3198C0.464844 13.0618 0.477598 13.4062 0.528613 14.4903C0.579628 15.5616 0.745427 16.3013 1.0005 16.939C1.25558 17.6022 1.59993 18.1634 2.1611 18.7245C2.72227 19.2857 3.28343 19.63 3.94663 19.8851C4.58432 20.1402 5.32404 20.306 6.39536 20.357C7.46668 20.408 7.81104 20.4208 10.5659 20.4208C13.3207 20.4208 13.6523 20.408 14.7364 20.357C15.8077 20.306 16.5474 20.1402 17.1851 19.8851C17.8483 19.63 18.4094 19.2857 18.9706 18.7245C19.5318 18.1634 19.8761 17.6022 20.1312 16.939C20.3863 16.3013 20.5521 15.5616 20.6031 14.4903C20.6541 13.4189 20.6669 13.0746 20.6669 10.3198C20.6669 7.5777 20.6541 7.23334 20.6031 6.14927ZM18.7921 14.401C18.741 15.383 18.588 15.9187 18.4477 16.2758C18.2692 16.7477 18.0396 17.0793 17.6952 17.4364C17.3381 17.7935 17.0065 18.0103 16.5346 18.1889C16.1775 18.3292 15.6419 18.495 14.6598 18.5332C13.5885 18.5842 13.2697 18.597 10.5786 18.597C7.88756 18.597 7.55596 18.5842 6.49739 18.5332C5.51535 18.4822 4.97969 18.3292 4.62258 18.1889C4.15069 18.0103 3.81909 17.7807 3.46199 17.4364C3.10488 17.092 2.88807 16.7477 2.70951 16.2758C2.56922 15.9187 2.40342 15.383 2.36516 14.401C2.31415 13.3297 2.30139 13.0108 2.30139 10.3198C2.30139 7.62871 2.31415 7.29711 2.36516 6.23855C2.41618 5.2565 2.56922 4.72084 2.70951 4.36374C2.88807 3.89185 3.11764 3.56025 3.46199 3.20314C3.80634 2.84603 4.15069 2.62922 4.62258 2.45067C4.97969 2.31037 5.51535 2.14457 6.49739 2.10631C7.56871 2.0553 7.88756 2.04254 10.5786 2.04254C13.2697 2.04254 13.6013 2.0553 14.6598 2.10631C15.6419 2.15733 16.1775 2.31037 16.5346 2.45067C17.0065 2.62922 17.3381 2.85879 17.6952 3.20314C18.0523 3.54749 18.2692 3.89185 18.4477 4.36374C18.588 4.72084 18.7538 5.2565 18.7921 6.23855C18.8431 7.30986 18.8558 7.62871 18.8558 10.3198C18.8558 13.0108 18.8431 13.3424 18.7921 14.401ZM10.5662 5.12726C7.69656 5.12726 5.37537 7.44845 5.37537 10.3181C5.37537 13.1877 7.69656 15.5089 10.5662 15.5089C13.4358 15.5089 15.757 13.1877 15.757 10.3181C15.757 7.44845 13.4358 5.12726 10.5662 5.12726ZM10.5662 13.6851C8.70411 13.6851 7.19916 12.1801 7.19916 10.3181C7.19916 8.456 8.70411 6.95105 10.5662 6.95105C12.4282 6.95105 13.9332 8.456 13.9332 10.3181C13.9332 12.1801 12.4282 13.6851 10.5662 13.6851ZM14.749 4.92493C14.749 4.26173 15.2974 3.71332 15.9606 3.71332C16.6238 3.71332 17.1722 4.26173 17.1722 4.92493C17.1722 5.58813 16.6238 6.13654 15.9606 6.13654C15.2974 6.13654 14.749 5.58813 14.749 4.92493Z" fill="#ABABAB"/>
</svg>
